<?xml version="1.0" encoding="utf-8"?>
<!-- Generator: Adobe Illustrator 23.0.6, SVG Export Plug-In . SVG Version: 6.00 Build 0)  -->
<svg version="1.1" id="Layer_1" xmlns="http://www.w3.org/2000/svg" xmlns:xlink="http://www.w3.org/1999/xlink" x="0px" y="0px"
	 viewBox="0 0 500 133" style="enable-background:new 0 0 500 133;" xml:space="preserve">
<style type="text/css">
	.st0{fill:url(#SVGID_1_);}
</style>
<linearGradient id="SVGID_1_" gradientUnits="userSpaceOnUse" x1="4.087" y1="66.6255" x2="496.1437" y2="66.6255">
	<stop  offset="5.000000e-02" style="stop-color:#FF1D25"/>
	<stop  offset="0.35" style="stop-color:#A0328C"/>
	<stop  offset="0.45" style="stop-color:#7040A4"/>
	<stop  offset="0.55" style="stop-color:#4359C7"/>
	<stop  offset="0.7" style="stop-color:#0082E6"/>
</linearGradient>
<path class="st0" d="M438.7,55.2v27h21.7v12.7c-1.7,1-3.6,1.7-5.8,2.2c-2.2,0.5-5.1,0.7-8.7,0.7c-4.5,0-8.5-0.7-12.2-2.2
	c-3.7-1.4-6.9-3.5-9.5-6.2c-2.7-2.7-4.7-5.9-6.2-9.6c-1.5-3.7-2.3-7.8-2.3-12.3v-0.4c0-4.3,0.7-8.3,2.1-12c1.4-3.6,3.4-6.8,5.9-9.4
	c2.5-2.7,5.6-4.7,9.1-6.2c3.5-1.5,7.3-2.3,11.4-2.3c5.3,0,10.3,1,14.9,2.9c4.6,1.9,9,4.6,13.2,8.2l23.7-28.6
	c-6.9-6-14.7-10.8-23.5-14.1c-8.8-3.4-18.6-5.1-29.6-5.1c-10,0-19.3,1.7-27.8,5c-8.5,3.3-15.9,7.9-22.2,13.9
	c-6.3,5.9-11.2,12.9-14.7,21c-3.1,7.1-4.8,14.8-5.2,22.9l-25.5-61h-42l-36.2,86.6V3.2H225l-27.2,44.6L170.7,3.2h-44.2v28.4
	c-2.1-3.8-4.6-7.3-7.4-10.5C113.5,14.8,106.5,9.8,98,6.1c-8.5-3.7-18.6-5.6-30.1-5.6c-9.9,0-19,1.7-27.3,5.1
	C32.3,9,25.1,13.7,19.1,19.7c-6,6-10.7,13-14,21c-3.3,8-5,16.6-5,25.8V67c0,9.8,1.8,18.8,5.3,26.9c3.6,8.1,8.5,15,14.9,20.7
	c6.4,5.7,13.9,10.1,22.7,13.3c8.8,3.2,18.4,4.8,29,4.8c13.4,0,24.9-2.3,34.4-7c4.7-2.3,8.9-5,12.8-8L97.9,91.9
	c-2.6,1.9-5.3,3.4-7.9,4.5c-4.7,2-9.9,3-15.5,3c-7.4,0-13.7-1.7-18.7-5.1c-4.2-2.9-7.3-7-9.3-12.4h79.9v48.1h41.3V67.2l29.3,45.1
	h0.7L227,67.2v62.9h70.3l6.5-17h44.4l6.7,17h46l-6-14.3c6.2,5.3,13.3,9.4,21.4,12.3c8.6,3.1,17.9,4.7,27.8,4.7
	c11.6,0,22.1-1.7,31.5-5.2c9.4-3.5,17.6-8.1,24.5-13.7V55.2H438.7z M45,55.1c1.4-6.5,3.9-11.8,7.7-15.7c4-4.1,9.1-6.2,15.4-6.2
	c6.4,0,11.7,2.1,15.9,6.2c3.9,3.9,6.4,9.2,7.3,15.7H45z M314.5,83l11.6-30.8L337.7,83H314.5z"/>
</svg>
